<svg width="174" height="179" viewBox="0 0 174 179" fill="none" xmlns="http://www.w3.org/2000/svg">
<g filter="url(#filter0_d)">
<path d="M74.7193 1.49227C75.2875 -0.411817 77.984 -0.411818 78.5522 1.49226L95.181 57.2128C95.4339 58.0602 96.2132 58.6409 97.0975 58.6409H151.248C153.144 58.6409 153.976 61.0331 152.489 62.2094L108.396 97.0884C107.753 97.5963 107.486 98.4443 107.72 99.2289L124.492 155.429C125.051 157.302 122.867 158.782 121.334 157.569L77.8765 123.193C77.1494 122.618 76.1222 122.618 75.395 123.193L31.937 157.569C30.404 158.782 28.2208 157.302 28.7798 155.429L45.5516 99.2289C45.7857 98.4443 45.518 97.5963 44.8759 97.0884L0.782799 62.2094C-0.704264 61.0331 0.127524 58.6409 2.02359 58.6409H56.174C57.0583 58.6409 57.8376 58.0602 58.0905 57.2128L74.7193 1.49227Z" fill="#7DBF80"/>
</g>
<defs>
<filter id="filter0_d" x="0.0196533" y="0.064209" width="173.232" height="177.946" filterUnits="userSpaceOnUse" color-interpolation-filters="sRGB">
<feFlood flood-opacity="0" result="BackgroundImageFix"/>
<feColorMatrix in="SourceAlpha" type="matrix" values="0 0 0 0 0 0 0 0 0 0 0 0 0 0 0 0 0 0 127 0"/>
<feOffset dx="10" dy="10"/>
<feGaussianBlur stdDeviation="5"/>
<feColorMatrix type="matrix" values="0 0 0 0 0 0 0 0 0 0 0 0 0 0 0 0 0 0 0.3 0"/>
<feBlend mode="normal" in2="BackgroundImageFix" result="effect1_dropShadow"/>
<feBlend mode="normal" in="SourceGraphic" in2="effect1_dropShadow" result="shape"/>
</filter>
</defs>
</svg>
